<?xml version="1.0" encoding="utf-8"?>
<!-- Generator: Adobe Illustrator 25.2.3, SVG Export Plug-In . SVG Version: 6.00 Build 0)  -->
<svg version="1.1" id="Capa_1" xmlns="http://www.w3.org/2000/svg" xmlns:xlink="http://www.w3.org/1999/xlink" x="0px" y="0px"
	 viewBox="0 0 532.2 532.2" style="enable-background:new 0 0 532.2 532.2;" xml:space="preserve">
<style type="text/css">
	.st0{fill:#FFFFFF;}
</style>
<g>
	<g>
		<path class="st0" d="M70.6,301.7l195.5-124.9l195.5,124.9c7.7,4.9,16.2,7.2,24.7,7.2c15.1,0,30-7.5,38.7-21.2
			c13.6-21.4,7.4-49.7-14-63.4L290.8,83.7c-15.1-9.6-34.4-9.6-49.4,0L21.2,224.3c-21.4,13.6-27.6,42-14,63.4
			C20.9,309.1,49.3,315.3,70.6,301.7z"/>
		<path class="st0" d="M70.6,448.5l195.5-124.9l195.5,124.9c7.7,4.9,16.2,7.2,24.7,7.2c15.1,0,30-7.5,38.7-21.2
			c13.6-21.4,7.4-49.7-14-63.4L290.8,230.5c-15.1-9.6-34.4-9.6-49.4,0L21.2,371.1c-21.4,13.6-27.6,42-14,63.4
			C20.9,455.9,49.3,462.1,70.6,448.5z"/>
	</g>
</g>
</svg>
